<svg xmlns="http://www.w3.org/2000/svg" xmlns:xlink="http://www.w3.org/1999/xlink" width="105" height="49" version="1.1" viewBox="0 0 105 49"><title>Mindmap2</title><desc>Created with Sketch.</desc><g id="Page-1" fill="none" fill-rule="evenodd" stroke="none" stroke-width="1"><g id="Mindmap2" fill-rule="nonzero" transform="translate(-1.500000, -0.696554)"><g id="Group-43" transform="translate(61.000000, 0.000000)"><g id="Group-41" fill="#767676" transform="translate(28.650697, 0.322921)"><path id="Rectangle-30-Copy-15" d="M2.08588957,18.2503457 L2.08588957,22.2503457 L14.0858896,22.2503457 L14.0858896,18.2503457 L2.08588957,18.2503457 Z M1.08588957,16.2503457 L15.0858896,16.2503457 C15.6381743,16.2503457 16.0858896,16.698061 16.0858896,17.2503457 L16.0858896,23.2503457 C16.0858896,23.8026305 15.6381743,24.2503457 15.0858896,24.2503457 L1.08588957,24.2503457 C0.533604821,24.2503457 0.0858895706,23.8026305 0.0858895706,23.2503457 L0.0858895706,17.2503457 C0.0858895706,16.698061 0.533604821,16.2503457 1.08588957,16.2503457 Z"/><path id="Rectangle-30-Copy-16" d="M2.08588957,2.37687482 L2.08588957,6.37687482 L14.0858896,6.37687482 L14.0858896,2.37687482 L2.08588957,2.37687482 Z M1.08588957,0.376874819 L15.0858896,0.376874819 C15.6381743,0.376874819 16.0858896,0.82459007 16.0858896,1.37687482 L16.0858896,7.37687482 C16.0858896,7.92915957 15.6381743,8.37687482 15.0858896,8.37687482 L1.08588957,8.37687482 C0.533604821,8.37687482 0.0858895706,7.92915957 0.0858895706,7.37687482 L0.0858895706,1.37687482 C0.0858895706,0.82459007 0.533604821,0.376874819 1.08588957,0.376874819 Z"/></g><path id="Rectangle-30-Copy-12" fill="#767676" d="M8.73952262,32.1513849 L8.73952262,36.1513849 L20.7395226,36.1513849 L20.7395226,32.1513849 L8.73952262,32.1513849 Z M7.73952262,30.1513849 L21.7395226,30.1513849 C22.2918074,30.1513849 22.7395226,30.5991001 22.7395226,31.1513849 L22.7395226,37.1513849 C22.7395226,37.7036696 22.2918074,38.1513849 21.7395226,38.1513849 L7.73952262,38.1513849 C7.18723787,38.1513849 6.73952262,37.7036696 6.73952262,37.1513849 L6.73952262,31.1513849 C6.73952262,30.5991001 7.18723787,30.1513849 7.73952262,30.1513849 Z"/><path id="Rectangle-30-Copy-13" fill="#767676" d="M8.73952262,11.3212676 L8.73952262,15.3212676 L20.7395226,15.3212676 L20.7395226,11.3212676 L8.73952262,11.3212676 Z M7.73952262,9.32126764 L21.7395226,9.32126764 C22.2918074,9.32126764 22.7395226,9.76898289 22.7395226,10.3212676 L22.7395226,16.3212676 C22.7395226,16.8735524 22.2918074,17.3212676 21.7395226,17.3212676 L7.73952262,17.3212676 C7.18723787,17.3212676 6.73952262,16.8735524 6.73952262,16.3212676 L6.73952262,10.3212676 C6.73952262,9.76898289 7.18723787,9.32126764 7.73952262,9.32126764 Z"/><polygon id="Path-11" fill="#979797" points="29.001 20.574 29.001 21.574 24.964 21.574 24.964 4.5 29 4.5 29 5.5 25.964 5.5 25.964 20.574"/><polygon id="Path-11-Copy" fill="#979797" points="3.703 33.764 6.74 33.764 6.74 34.764 2.703 34.764 2.703 13.236 6.739 13.236 6.739 14.236 3.703 14.236"/><polygon id="Path-12" fill="#979797" points="22.5 14 22.5 13 25 13 25 14"/><polygon id="Path-12-Copy" fill="#979797" points=".239 24.963 .239 23.963 2.739 23.963 2.739 24.963"/></g><g id="Group-43-Copy" transform="translate(23.703347, 30.000000) scale(-1, -1) translate(-23.703347, -30.000000) translate(0.703347, 10.500000)"><g id="Group-41" fill="#767676" transform="translate(28.650697, 0.322921)"><path id="Rectangle-30-Copy-15" d="M2.08588957,18.2503457 L2.08588957,22.2503457 L14.0858896,22.2503457 L14.0858896,18.2503457 L2.08588957,18.2503457 Z M1.08588957,16.2503457 L15.0858896,16.2503457 C15.6381743,16.2503457 16.0858896,16.698061 16.0858896,17.2503457 L16.0858896,23.2503457 C16.0858896,23.8026305 15.6381743,24.2503457 15.0858896,24.2503457 L1.08588957,24.2503457 C0.533604821,24.2503457 0.0858895706,23.8026305 0.0858895706,23.2503457 L0.0858895706,17.2503457 C0.0858895706,16.698061 0.533604821,16.2503457 1.08588957,16.2503457 Z"/><path id="Rectangle-30-Copy-16" d="M2.08588957,2.37687482 L2.08588957,6.37687482 L14.0858896,6.37687482 L14.0858896,2.37687482 L2.08588957,2.37687482 Z M1.08588957,0.376874819 L15.0858896,0.376874819 C15.6381743,0.376874819 16.0858896,0.82459007 16.0858896,1.37687482 L16.0858896,7.37687482 C16.0858896,7.92915957 15.6381743,8.37687482 15.0858896,8.37687482 L1.08588957,8.37687482 C0.533604821,8.37687482 0.0858895706,7.92915957 0.0858895706,7.37687482 L0.0858895706,1.37687482 C0.0858895706,0.82459007 0.533604821,0.376874819 1.08588957,0.376874819 Z"/></g><path id="Rectangle-30-Copy-12" fill="#767676" d="M8.73952262,32.1513849 L8.73952262,36.1513849 L20.7395226,36.1513849 L20.7395226,32.1513849 L8.73952262,32.1513849 Z M7.73952262,30.1513849 L21.7395226,30.1513849 C22.2918074,30.1513849 22.7395226,30.5991001 22.7395226,31.1513849 L22.7395226,37.1513849 C22.7395226,37.7036696 22.2918074,38.1513849 21.7395226,38.1513849 L7.73952262,38.1513849 C7.18723787,38.1513849 6.73952262,37.7036696 6.73952262,37.1513849 L6.73952262,31.1513849 C6.73952262,30.5991001 7.18723787,30.1513849 7.73952262,30.1513849 Z"/><path id="Rectangle-30-Copy-13" fill="#767676" d="M8.73952262,11.3212676 L8.73952262,15.3212676 L20.7395226,15.3212676 L20.7395226,11.3212676 L8.73952262,11.3212676 Z M7.73952262,9.32126764 L21.7395226,9.32126764 C22.2918074,9.32126764 22.7395226,9.76898289 22.7395226,10.3212676 L22.7395226,16.3212676 C22.7395226,16.8735524 22.2918074,17.3212676 21.7395226,17.3212676 L7.73952262,17.3212676 C7.18723787,17.3212676 6.73952262,16.8735524 6.73952262,16.3212676 L6.73952262,10.3212676 C6.73952262,9.76898289 7.18723787,9.32126764 7.73952262,9.32126764 Z"/><polygon id="Path-11" fill="#979797" points="29.001 20.574 29.001 21.574 24.964 21.574 24.964 4.5 29 4.5 29 5.5 25.964 5.5 25.964 20.574"/><polygon id="Path-11-Copy" fill="#979797" points="3.703 33.764 6.74 33.764 6.74 34.764 2.703 34.764 2.703 13.236 6.739 13.236 6.739 14.236 3.703 14.236"/><polygon id="Path-12" fill="#979797" points="22.5 14 22.5 13 25 13 25 14"/><polygon id="Path-12-Copy" fill="#979797" points=".239 24.963 .239 23.963 2.739 23.963 2.739 24.963"/></g><path id="Rectangle-30-Copy" fill="#767676" d="M47.7033471,22.790255 L47.7033471,26.790255 L59.7033471,26.790255 L59.7033471,22.790255 L47.7033471,22.790255 Z M46.7033471,20.790255 L60.7033471,20.790255 C61.2556318,20.790255 61.7033471,21.2379702 61.7033471,21.790255 L61.7033471,27.790255 C61.7033471,28.3425397 61.2556318,28.790255 60.7033471,28.790255 L46.7033471,28.790255 C46.1510623,28.790255 45.7033471,28.3425397 45.7033471,27.790255 L45.7033471,21.790255 C45.7033471,21.2379702 46.1510623,20.790255 46.7033471,20.790255 Z"/></g></g></svg>