<svg xmlns="http://www.w3.org/2000/svg" xmlns:xlink="http://www.w3.org/1999/xlink" width="139" height="2" version="1.1" viewBox="0 0 139 2"><title>4,4,1</title><desc>Created with Sketch.</desc><g id="Page-1" fill="none" fill-rule="evenodd" stroke="none" stroke-width="1"><path id="4,4,1" fill="#979797" fill-rule="nonzero" d="M0.5,2 L0.5,0 L10.5,0 L10.5,2 L0.5,2 Z M12.5,2 L12.5,0 L14.5,0 L14.5,2 L12.5,2 Z M16.5,2 L16.5,0 L26.5,0 L26.5,2 L16.5,2 Z M28.5,2 L28.5,0 L30.5,0 L30.5,2 L28.5,2 Z M32.5,2 L32.5,0 L42.5,0 L42.5,2 L32.5,2 Z M44.5,2 L44.5,0 L46.5,0 L46.5,2 L44.5,2 Z M48.5,2 L48.5,0 L58.5,0 L58.5,2 L48.5,2 Z M60.5,2 L60.5,0 L62.5,0 L62.5,2 L60.5,2 Z M64.5,2 L64.5,0 L74.5,0 L74.5,2 L64.5,2 Z M76.5,2 L76.5,0 L78.5,0 L78.5,2 L76.5,2 Z M80.5,2 L80.5,0 L90.5,0 L90.5,2 L80.5,2 Z M92.5,2 L92.5,0 L94.5,0 L94.5,2 L92.5,2 Z M96.5,2 L96.5,0 L106.5,0 L106.5,2 L96.5,2 Z M108.5,2 L108.5,0 L110.5,0 L110.5,2 L108.5,2 Z M112.5,2 L112.5,0 L122.5,0 L122.5,2 L112.5,2 Z M124.5,2 L124.5,0 L126.5,0 L126.5,2 L124.5,2 Z M128.5,2 L128.5,0 L138.5,0 L138.5,2 L128.5,2 Z"/></g></svg>