<svg xmlns="http://www.w3.org/2000/svg" xmlns:xlink="http://www.w3.org/1999/xlink" width="112" height="77" version="1.1" viewBox="0 0 112 77"><title>Org4</title><desc>Created with Sketch.</desc><g id="Page-1" fill="none" fill-rule="evenodd" stroke="none" stroke-width="1"><g id="Org4"><rect id="Rectangle-3-Copy-57" width="112" height="76" x="0" y=".84" fill="#FFF" rx="4"/><g id="Group-Copy-4" fill-rule="nonzero" transform="translate(7.500000, 12.839857)"><path id="Rectangle-30" fill="#767676" d="M23.3626064,2 L23.3626064,10 L44.3626064,10 L44.3626064,2 L23.3626064,2 Z M22.3626064,0 L45.3626064,0 C45.9148911,-1.01453063e-16 46.3626064,0.44771525 46.3626064,1 L46.3626064,11 C46.3626064,11.5522847 45.9148911,12 45.3626064,12 L22.3626064,12 C21.8103216,12 21.3626064,11.5522847 21.3626064,11 L21.3626064,1 C21.3626064,0.44771525 21.8103216,1.01453063e-16 22.3626064,0 Z"/><path id="Rectangle-30-Copy-4" fill="#767676" d="M44.166207,49.9224468 L65.166207,49.9224468 L65.166207,41.9224468 L44.166207,41.9224468 L44.166207,49.9224468 Z M43.166207,39.9224468 L66.166207,39.9224468 C66.7184918,39.9224468 67.166207,40.370162 67.166207,40.9224468 L67.166207,50.9224468 C67.166207,51.4747315 66.7184918,51.9224468 66.166207,51.9224468 L43.166207,51.9224468 C42.6139223,51.9224468 42.166207,51.4747315 42.166207,50.9224468 L42.166207,40.9224468 C42.166207,40.370162 42.6139223,39.9224468 43.166207,39.9224468 Z" transform="translate(54.666207, 45.922447) scale(-1, 1) translate(-54.666207, -45.922447)"/><path id="Rectangle-30-Copy-5" fill="#767676" d="M74,49.9224468 L95,49.9224468 L95,41.9224468 L74,41.9224468 L74,49.9224468 Z M73,39.9224468 L96,39.9224468 C96.5522847,39.9224468 97,40.370162 97,40.9224468 L97,50.9224468 C97,51.4747315 96.5522847,51.9224468 96,51.9224468 L73,51.9224468 C72.4477153,51.9224468 72,51.4747315 72,50.9224468 L72,40.9224468 C72,40.370162 72.4477153,39.9224468 73,39.9224468 Z" transform="translate(84.500000, 45.922447) scale(-1, 1) translate(-84.500000, -45.922447)"/><polygon id="Path-6" fill="#4A4A4A" points="13.559 20.552 12.559 20.552 12.559 15.804 55.166 15.804 55.166 20.67 54.166 20.67 54.166 16.804 13.559 16.804"/><polygon id="Path-6-Copy" fill="#4A4A4A" points="25.5 39.964 24.5 39.964 24.5 35.217 86.419 35.217 86.419 40.083 85.419 40.083 85.419 36.217 25.5 36.217"/><path id="Rectangle-30-Copy-3" fill="#767676" d="M14.5,41.9224468 L14.5,49.9224468 L35.5,49.9224468 L35.5,41.9224468 L14.5,41.9224468 Z M13.5,39.9224468 L36.5,39.9224468 C37.0522847,39.9224468 37.5,40.370162 37.5,40.9224468 L37.5,50.9224468 C37.5,51.4747315 37.0522847,51.9224468 36.5,51.9224468 L13.5,51.9224468 C12.9477153,51.9224468 12.5,51.4747315 12.5,50.9224468 L12.5,40.9224468 C12.5,40.370162 12.9477153,39.9224468 13.5,39.9224468 Z" transform="translate(25.000000, 45.922447) scale(-1, 1) translate(-25.000000, -45.922447)"/><path id="Rectangle-30-Copy" fill="#767676" d="M2,21.7165569 L2,29.7165569 L23,29.7165569 L23,21.7165569 L2,21.7165569 Z M1,19.7165569 L24,19.7165569 C24.5522847,19.7165569 25,20.1642722 25,20.7165569 L25,30.7165569 C25,31.2688417 24.5522847,31.7165569 24,31.7165569 L1,31.7165569 C0.44771525,31.7165569 6.76353751e-17,31.2688417 0,30.7165569 L0,20.7165569 C-6.76353751e-17,20.1642722 0.44771525,19.7165569 1,19.7165569 Z"/><polygon id="Path-7" fill="#4A4A4A" points="33.31 12.056 34.31 12.056 34.31 16.304 33.31 16.304"/><polygon id="Path-7-Copy" fill="#4A4A4A" points="54.331 31.717 55.331 31.717 55.331 35.964 54.331 35.964"/><polygon id="Path-7-Copy-2" fill="#4A4A4A" points="54.331 35.964 55.331 35.964 55.331 40.212 54.331 40.212"/><path id="Rectangle-30-Copy-2" fill="#767676" d="M44.3309295,21.7165569 L44.3309295,29.7165569 L65.3309295,29.7165569 L65.3309295,21.7165569 L44.3309295,21.7165569 Z M43.3309295,19.7165569 L66.3309295,19.7165569 C66.8832143,19.7165569 67.3309295,20.1642722 67.3309295,20.7165569 L67.3309295,30.7165569 C67.3309295,31.2688417 66.8832143,31.7165569 66.3309295,31.7165569 L43.3309295,31.7165569 C42.7786448,31.7165569 42.3309295,31.2688417 42.3309295,30.7165569 L42.3309295,20.7165569 C42.3309295,20.1642722 42.7786448,19.7165569 43.3309295,19.7165569 Z"/></g></g></g></svg>