<svg xmlns="http://www.w3.org/2000/svg" xmlns:xlink="http://www.w3.org/1999/xlink" width="112" height="77" version="1.1" viewBox="0 0 112 77"><title>Org1</title><desc>Created with Sketch.</desc><g id="Page-1" fill="none" fill-rule="evenodd" stroke="none" stroke-width="1"><g id="Org1"><rect id="Rectangle-3-Copy-60" width="112" height="76" x="0" y=".385" fill="#FFF" rx="4"/><path id="Rectangle-30" fill="#767676" fill-rule="nonzero" d="M37.3626064,7.30539794 L37.3626064,15.3053979 L58.3626064,15.3053979 L58.3626064,7.30539794 L37.3626064,7.30539794 Z M36.3626064,5.30539794 L59.3626064,5.30539794 C59.9148911,5.30539794 60.3626064,5.75311319 60.3626064,6.30539794 L60.3626064,16.3053979 C60.3626064,16.8576827 59.9148911,17.3053979 59.3626064,17.3053979 L36.3626064,17.3053979 C35.8103216,17.3053979 35.3626064,16.8576827 35.3626064,16.3053979 L35.3626064,6.30539794 C35.3626064,5.75311319 35.8103216,5.30539794 36.3626064,5.30539794 Z"/><polygon id="Path-9" fill="#4A4A4A" fill-rule="nonzero" points="68.63 48.216 68.63 47.216 73.599 47.216 73.599 48.216"/><polygon id="Path-9-Copy" fill="#4A4A4A" fill-rule="nonzero" points="63.863 48.216 63.863 47.216 68.831 47.216 68.831 48.216"/><polygon id="Path-9-Copy-2" fill="#4A4A4A" fill-rule="nonzero" points="63.863 64.305 63.863 63.305 68.831 63.305 68.831 64.305"/><path id="Rectangle-30-Copy-4" fill="#767676" fill-rule="nonzero" d="M74.6659103,68.4282765 L95.6659103,68.4282765 L95.6659103,60.4282765 L74.6659103,60.4282765 L74.6659103,68.4282765 Z M73.6659103,58.4282765 L96.6659103,58.4282765 C97.2181951,58.4282765 97.6659103,58.8759917 97.6659103,59.4282765 L97.6659103,69.4282765 C97.6659103,69.9805612 97.2181951,70.4282765 96.6659103,70.4282765 L73.6659103,70.4282765 C73.1136256,70.4282765 72.6659103,69.9805612 72.6659103,69.4282765 L72.6659103,59.4282765 C72.6659103,58.8759917 73.1136256,58.4282765 73.6659103,58.4282765 Z"/><path id="Rectangle-30-Copy-7" fill="#767676" fill-rule="nonzero" d="M41.2584747,68.4282765 L62.2584747,68.4282765 L62.2584747,60.4282765 L41.2584747,60.4282765 L41.2584747,68.4282765 Z M40.2584747,58.4282765 L63.2584747,58.4282765 C63.8107595,58.4282765 64.2584747,58.8759917 64.2584747,59.4282765 L64.2584747,69.4282765 C64.2584747,69.9805612 63.8107595,70.4282765 63.2584747,70.4282765 L40.2584747,70.4282765 C39.70619,70.4282765 39.2584747,69.9805612 39.2584747,69.4282765 L39.2584747,59.4282765 C39.2584747,58.8759917 39.70619,58.4282765 40.2584747,58.4282765 Z"/><polygon id="Path-6" fill="#4A4A4A" fill-rule="nonzero" points="27.559 25.857 26.559 25.857 26.559 21.109 69.166 21.109 69.166 25.976 68.166 25.976 68.166 22.109 27.559 22.109"/><path id="Rectangle-30-Copy-3" fill="#767676" fill-rule="nonzero" d="M74.6659103,52.2278447 L95.6659103,52.2278447 L95.6659103,44.2278447 L74.6659103,44.2278447 L74.6659103,52.2278447 Z M73.6659103,42.2278447 L96.6659103,42.2278447 C97.2181951,42.2278447 97.6659103,42.6755599 97.6659103,43.2278447 L97.6659103,53.2278447 C97.6659103,53.7801294 97.2181951,54.2278447 96.6659103,54.2278447 L73.6659103,54.2278447 C73.1136256,54.2278447 72.6659103,53.7801294 72.6659103,53.2278447 L72.6659103,43.2278447 C72.6659103,42.6755599 73.1136256,42.2278447 73.6659103,42.2278447 Z"/><path id="Rectangle-30-Copy" fill="#767676" fill-rule="nonzero" d="M16,27.0219549 L16,35.0219549 L37,35.0219549 L37,27.0219549 L16,27.0219549 Z M15,25.0219549 L38,25.0219549 C38.5522847,25.0219549 39,25.4696701 39,26.0219549 L39,36.0219549 C39,36.5742396 38.5522847,37.0219549 38,37.0219549 L15,37.0219549 C14.4477153,37.0219549 14,36.5742396 14,36.0219549 L14,26.0219549 C14,25.4696701 14.4477153,25.0219549 15,25.0219549 Z"/><path id="Rectangle-30-Copy-8" fill="#767676" fill-rule="nonzero" d="M41.2584747,44.2278447 L41.2584747,52.2278447 L62.2584747,52.2278447 L62.2584747,44.2278447 L41.2584747,44.2278447 Z M40.2584747,42.2278447 L63.2584747,42.2278447 C63.8107595,42.2278447 64.2584747,42.6755599 64.2584747,43.2278447 L64.2584747,53.2278447 C64.2584747,53.7801294 63.8107595,54.2278447 63.2584747,54.2278447 L40.2584747,54.2278447 C39.70619,54.2278447 39.2584747,53.7801294 39.2584747,53.2278447 L39.2584747,43.2278447 C39.2584747,42.6755599 39.70619,42.2278447 40.2584747,42.2278447 Z"/><polygon id="Path-7" fill="#4A4A4A" fill-rule="nonzero" points="47.31 17.362 48.31 17.362 48.31 21.609 47.31 21.609"/><polygon id="Path-8" fill="#4A4A4A" fill-rule="nonzero" points="72.528 63.348 72.528 64.348 68.13 64.348 68.13 36.848 69.13 36.848 69.13 63.348"/><path id="Rectangle-30-Copy-2" fill="#767676" fill-rule="nonzero" d="M58.3309295,27.0219549 L58.3309295,35.0219549 L79.3309295,35.0219549 L79.3309295,27.0219549 L58.3309295,27.0219549 Z M57.3309295,25.0219549 L80.3309295,25.0219549 C80.8832143,25.0219549 81.3309295,25.4696701 81.3309295,26.0219549 L81.3309295,36.0219549 C81.3309295,36.5742396 80.8832143,37.0219549 80.3309295,37.0219549 L57.3309295,37.0219549 C56.7786448,37.0219549 56.3309295,36.5742396 56.3309295,36.0219549 L56.3309295,26.0219549 C56.3309295,25.4696701 56.7786448,25.0219549 57.3309295,25.0219549 Z"/></g></g></svg>