<svg xmlns="http://www.w3.org/2000/svg" xmlns:xlink="http://www.w3.org/1999/xlink" width="112" height="77" version="1.1" viewBox="0 0 112 77"><title>Org6</title><desc>Created with Sketch.</desc><g id="Page-1" fill="none" fill-rule="evenodd" stroke="none" stroke-width="1"><g id="Org6" transform="translate(0.000000, 0.587840)"><rect id="Rectangle-3-Copy-55" width="112" height="76" x="0" y="0" fill="#FFF" rx="4"/><g id="Group-Copy-9" fill-rule="nonzero" transform="translate(19.500000, 12.000000)"><path id="Rectangle-30" fill="#767676" d="M34.6498945,2 L34.6498945,10 L52.4752913,10 L52.4752913,2 L34.6498945,2 Z M33.6498945,0 L53.4752913,0 C54.027576,-2.06356265e-15 54.4752913,0.44771525 54.4752913,1 L54.4752913,11 C54.4752913,11.5522847 54.027576,12 53.4752913,12 L33.6498945,12 C33.0976097,12 32.6498945,11.5522847 32.6498945,11 L32.6498945,1 C32.6498945,0.44771525 33.0976097,1.01453063e-16 33.6498945,0 Z"/><path id="Rectangle-30-Copy-4" fill="#767676" d="M52.811768,49.9224468 L70.6371649,49.9224468 L70.6371649,41.9224468 L52.811768,41.9224468 L52.811768,49.9224468 Z M51.811768,39.9224468 L71.6371649,39.9224468 C72.1894496,39.9224468 72.6371649,40.370162 72.6371649,40.9224468 L72.6371649,50.9224468 C72.6371649,51.4747315 72.1894496,51.9224468 71.6371649,51.9224468 L51.811768,51.9224468 C51.2594833,51.9224468 50.811768,51.4747315 50.811768,50.9224468 L50.811768,40.9224468 C50.811768,40.370162 51.2594833,39.9224468 51.811768,39.9224468 Z" transform="translate(61.724466, 45.922447) scale(-1, 1) translate(-61.724466, -45.922447)"/><path id="Rectangle-30-Copy-5" fill="#767676" d="M2.07485888,41.9224468 L2.07485888,49.9224468 L19.9002557,49.9224468 L19.9002557,41.9224468 L2.07485888,41.9224468 Z M1.07485888,39.9224468 L20.9002557,39.9224468 C21.4525405,39.9224468 21.9002557,40.370162 21.9002557,40.9224468 L21.9002557,50.9224468 C21.9002557,51.4747315 21.4525405,51.9224468 20.9002557,51.9224468 L1.07485888,51.9224468 C0.522574131,51.9224468 0.0748588811,51.4747315 0.0748588811,50.9224468 L0.0748588811,40.9224468 C0.0748588811,40.370162 0.522574131,39.9224468 1.07485888,39.9224468 Z" transform="translate(10.987557, 45.922447) scale(-1, 1) translate(-10.987557, -45.922447)"/><polygon id="Path-6" fill="#4A4A4A" points="25.901 20.552 24.901 20.552 24.901 15.804 62.224 15.804 62.224 20.67 61.224 20.67 61.224 16.804 25.901 16.804"/><polygon id="Path-6-Copy" fill="#4A4A4A" points="10.167 36.217 10.167 39.964 9.167 39.964 9.167 35.217 62.368 35.217 62.368 40.083 61.368 40.083 61.368 36.217" transform="translate(35.767848, 37.649693) scale(-1, 1) translate(-35.767848, -37.649693)"/><path id="Rectangle-30-Copy-3" fill="#767676" d="M27.3923192,49.9224468 L45.217716,49.9224468 L45.217716,41.9224468 L27.3923192,41.9224468 L27.3923192,49.9224468 Z M26.3923192,39.9224468 L46.217716,39.9224468 C46.7700008,39.9224468 47.217716,40.370162 47.217716,40.9224468 L47.217716,50.9224468 C47.217716,51.4747315 46.7700008,51.9224468 46.217716,51.9224468 L26.3923192,51.9224468 C25.8400344,51.9224468 25.3923192,51.4747315 25.3923192,50.9224468 L25.3923192,40.9224468 C25.3923192,40.370162 25.8400344,39.9224468 26.3923192,39.9224468 Z" transform="translate(36.305018, 45.922447) scale(-1, 1) translate(-36.305018, -45.922447)"/><path id="Rectangle-30-Copy" fill="#767676" d="M16,21.7165569 L16,29.7165569 L33.8253968,29.7165569 L33.8253968,21.7165569 L16,21.7165569 Z M15,19.7165569 L34.8253968,19.7165569 C35.3776816,19.7165569 35.8253968,20.1642722 35.8253968,20.7165569 L35.8253968,30.7165569 C35.8253968,31.2688417 35.3776816,31.7165569 34.8253968,31.7165569 L15,31.7165569 C14.4477153,31.7165569 14,31.2688417 14,30.7165569 L14,20.7165569 C14,20.1642722 14.4477153,19.7165569 15,19.7165569 Z"/><polygon id="Path-7" fill="#4A4A4A" points="43.016 12.056 44.016 12.056 44.016 16.304 43.016 16.304"/><polygon id="Path-7-Copy" fill="#4A4A4A" points="61.368 31.717 62.368 31.717 62.368 35.964 61.368 35.964"/><polygon id="Path-7-Copy-3" fill="#4A4A4A" points="35.268 35.675 36.268 35.675 36.268 39.922 35.268 39.922"/><polygon id="Path-7-Copy-2" fill="#4A4A4A" points="61.368 35.964 62.368 35.964 62.368 40.212 61.368 40.212"/><path id="Rectangle-30-Copy-2" fill="#767676" d="M52.9555734,29.7165569 L70.7809702,29.7165569 L70.7809702,21.7165569 L52.9555734,21.7165569 L52.9555734,29.7165569 Z M51.9555734,19.7165569 L71.7809702,19.7165569 C72.333255,19.7165569 72.7809702,20.1642722 72.7809702,20.7165569 L72.7809702,30.7165569 C72.7809702,31.2688417 72.333255,31.7165569 71.7809702,31.7165569 L51.9555734,31.7165569 C51.4032886,31.7165569 50.9555734,31.2688417 50.9555734,30.7165569 L50.9555734,20.7165569 C50.9555734,20.1642722 51.4032886,19.7165569 51.9555734,19.7165569 Z"/></g></g></g></svg>