<svg xmlns="http://www.w3.org/2000/svg" xmlns:xlink="http://www.w3.org/1999/xlink" width="112" height="77" version="1.1" viewBox="0 0 112 77"><title>Org2</title><desc>Created with Sketch.</desc><g id="Page-1" fill="none" fill-rule="evenodd" stroke="none" stroke-width="1"><g id="Org2" transform="translate(0.000000, -0.500000)"><rect id="Rectangle-3-Copy-59" width="112" height="76" x="0" y=".76" fill="#FFF" rx="4"/><g id="Group-Copy-2" fill-rule="nonzero" transform="translate(12.500000, 5.839857)"><path id="Rectangle-30" fill="#767676" d="M40.3626064,2 L40.3626064,10 L61.3626064,10 L61.3626064,2 L40.3626064,2 Z M39.3626064,0 L62.3626064,0 C62.9148911,-1.01453063e-16 63.3626064,0.44771525 63.3626064,1 L63.3626064,11 C63.3626064,11.5522847 62.9148911,12 62.3626064,12 L39.3626064,12 C38.8103216,12 38.3626064,11.5522847 38.3626064,11 L38.3626064,1 C38.3626064,0.44771525 38.8103216,1.01453063e-16 39.3626064,0 Z"/><polygon id="Path-9" fill="#4A4A4A" points="24.532 42.91 24.532 41.91 29.5 41.91 29.5 42.91" transform="translate(27.015838, 42.410401) scale(-1, 1) translate(-27.015838, -42.410401)"/><path id="Rectangle-30-Copy-4" fill="#767676" d="M2.53167685,55.1228785 L2.53167685,63.1228785 L23.5316768,63.1228785 L23.5316768,55.1228785 L2.53167685,55.1228785 Z M1.53167685,53.1228785 L24.5316768,53.1228785 C25.0839616,53.1228785 25.5316768,53.5705938 25.5316768,54.1228785 L25.5316768,64.1228785 C25.5316768,64.6751633 25.0839616,65.1228785 24.5316768,65.1228785 L1.53167685,65.1228785 C0.979392098,65.1228785 0.531676848,64.6751633 0.531676848,64.1228785 L0.531676848,54.1228785 C0.531676848,53.5705938 0.979392098,53.1228785 1.53167685,53.1228785 Z" transform="translate(13.031677, 59.122879) scale(-1, 1) translate(-13.031677, -59.122879)"/><polygon id="Path-6" fill="#4A4A4A" points="30.559 20.552 29.559 20.552 29.559 15.804 72.166 15.804 72.166 20.67 71.166 20.67 71.166 16.804 30.559 16.804"/><path id="Rectangle-30-Copy-3" fill="#767676" d="M2.53167685,38.9224468 L2.53167685,46.9224468 L23.5316768,46.9224468 L23.5316768,38.9224468 L2.53167685,38.9224468 Z M1.53167685,36.9224468 L24.5316768,36.9224468 C25.0839616,36.9224468 25.5316768,37.370162 25.5316768,37.9224468 L25.5316768,47.9224468 C25.5316768,48.4747315 25.0839616,48.9224468 24.5316768,48.9224468 L1.53167685,48.9224468 C0.979392098,48.9224468 0.531676848,48.4747315 0.531676848,47.9224468 L0.531676848,37.9224468 C0.531676848,37.370162 0.979392098,36.9224468 1.53167685,36.9224468 Z" transform="translate(13.031677, 42.922447) scale(-1, 1) translate(-13.031677, -42.922447)"/><path id="Rectangle-30-Copy" fill="#767676" d="M19,21.7165569 L19,29.7165569 L40,29.7165569 L40,21.7165569 L19,21.7165569 Z M18,19.7165569 L41,19.7165569 C41.5522847,19.7165569 42,20.1642722 42,20.7165569 L42,30.7165569 C42,31.2688417 41.5522847,31.7165569 41,31.7165569 L18,31.7165569 C17.4477153,31.7165569 17,31.2688417 17,30.7165569 L17,20.7165569 C17,20.1642722 17.4477153,19.7165569 18,19.7165569 Z"/><polygon id="Path-7" fill="#4A4A4A" points="50.31 12.056 51.31 12.056 51.31 16.304 50.31 16.304"/><polygon id="Path-8" fill="#4A4A4A" points="29.429 58.043 29.429 59.043 25.032 59.043 25.032 31.543 26.032 31.543 26.032 58.043" transform="translate(27.230425, 45.293073) scale(-1, 1) translate(-27.230425, -45.293073)"/><path id="Rectangle-30-Copy-2" fill="#767676" d="M61.3309295,21.7165569 L61.3309295,29.7165569 L82.3309295,29.7165569 L82.3309295,21.7165569 L61.3309295,21.7165569 Z M60.3309295,19.7165569 L83.3309295,19.7165569 C83.8832143,19.7165569 84.3309295,20.1642722 84.3309295,20.7165569 L84.3309295,30.7165569 C84.3309295,31.2688417 83.8832143,31.7165569 83.3309295,31.7165569 L60.3309295,31.7165569 C59.7786448,31.7165569 59.3309295,31.2688417 59.3309295,30.7165569 L59.3309295,20.7165569 C59.3309295,20.1642722 59.7786448,19.7165569 60.3309295,19.7165569 Z"/></g></g></g></svg>