<svg xmlns="http://www.w3.org/2000/svg" xmlns:xlink="http://www.w3.org/1999/xlink" width="112" height="76" version="1.1" viewBox="0 0 112 76"><title>Org3</title><desc>Created with Sketch.</desc><g id="Page-1" fill="none" fill-rule="evenodd" stroke="none" stroke-width="1"><g id="Org3"><rect id="Rectangle-3-Copy-58" width="112" height="76" x="0" y="0" fill="#FFF" rx="4"/><g id="Group-Copy-3" fill-rule="nonzero" transform="translate(22.000000, 5.000000)"><path id="Rectangle-30" fill="#767676" d="M23.3626064,2 L23.3626064,10 L44.3626064,10 L44.3626064,2 L23.3626064,2 Z M22.3626064,0 L45.3626064,0 C45.9148911,-1.01453063e-16 46.3626064,0.44771525 46.3626064,1 L46.3626064,11 C46.3626064,11.5522847 45.9148911,12 45.3626064,12 L22.3626064,12 C21.8103216,12 21.3626064,11.5522847 21.3626064,11 L21.3626064,1 C21.3626064,0.44771525 21.8103216,1.01453063e-16 22.3626064,0 Z"/><polygon id="Path-9" fill="#4A4A4A" points="8.532 42.91 8.532 41.91 13.5 41.91 13.5 42.91"/><path id="Rectangle-30-Copy-4" fill="#767676" d="M14.5,55.1228785 L14.5,63.1228785 L35.5,63.1228785 L35.5,55.1228785 L14.5,55.1228785 Z M13.5,53.1228785 L36.5,53.1228785 C37.0522847,53.1228785 37.5,53.5705938 37.5,54.1228785 L37.5,64.1228785 C37.5,64.6751633 37.0522847,65.1228785 36.5,65.1228785 L13.5,65.1228785 C12.9477153,65.1228785 12.5,64.6751633 12.5,64.1228785 L12.5,54.1228785 C12.5,53.5705938 12.9477153,53.1228785 13.5,53.1228785 Z" transform="translate(25.000000, 59.122879) scale(-1, 1) translate(-25.000000, -59.122879)"/><polygon id="Path-6" fill="#4A4A4A" points="13.559 20.552 12.559 20.552 12.559 15.804 55.166 15.804 55.166 20.67 54.166 20.67 54.166 16.804 13.559 16.804"/><path id="Rectangle-30-Copy-3" fill="#767676" d="M14.5,38.9224468 L14.5,46.9224468 L35.5,46.9224468 L35.5,38.9224468 L14.5,38.9224468 Z M13.5,36.9224468 L36.5,36.9224468 C37.0522847,36.9224468 37.5,37.370162 37.5,37.9224468 L37.5,47.9224468 C37.5,48.4747315 37.0522847,48.9224468 36.5,48.9224468 L13.5,48.9224468 C12.9477153,48.9224468 12.5,48.4747315 12.5,47.9224468 L12.5,37.9224468 C12.5,37.370162 12.9477153,36.9224468 13.5,36.9224468 Z" transform="translate(25.000000, 42.922447) scale(-1, 1) translate(-25.000000, -42.922447)"/><path id="Rectangle-30-Copy" fill="#767676" d="M2,21.7165569 L2,29.7165569 L23,29.7165569 L23,21.7165569 L2,21.7165569 Z M1,19.7165569 L24,19.7165569 C24.5522847,19.7165569 25,20.1642722 25,20.7165569 L25,30.7165569 C25,31.2688417 24.5522847,31.7165569 24,31.7165569 L1,31.7165569 C0.44771525,31.7165569 6.76353751e-17,31.2688417 0,30.7165569 L0,20.7165569 C-6.76353751e-17,20.1642722 0.44771525,19.7165569 1,19.7165569 Z"/><polygon id="Path-7" fill="#4A4A4A" points="33.31 12.056 34.31 12.056 34.31 16.304 33.31 16.304"/><polygon id="Path-8" fill="#4A4A4A" points="12.429 58.043 12.429 59.043 8.032 59.043 8.032 31.543 9.032 31.543 9.032 58.043"/><path id="Rectangle-30-Copy-2" fill="#767676" d="M44.3309295,21.7165569 L44.3309295,29.7165569 L65.3309295,29.7165569 L65.3309295,21.7165569 L44.3309295,21.7165569 Z M43.3309295,19.7165569 L66.3309295,19.7165569 C66.8832143,19.7165569 67.3309295,20.1642722 67.3309295,20.7165569 L67.3309295,30.7165569 C67.3309295,31.2688417 66.8832143,31.7165569 66.3309295,31.7165569 L43.3309295,31.7165569 C42.7786448,31.7165569 42.3309295,31.2688417 42.3309295,30.7165569 L42.3309295,20.7165569 C42.3309295,20.1642722 42.7786448,19.7165569 43.3309295,19.7165569 Z"/></g></g></g></svg>