<svg xmlns="http://www.w3.org/2000/svg" xmlns:xlink="http://www.w3.org/1999/xlink" width="135" height="135" version="1.1" viewBox="0 0 135 135"><title>OrgRenderingStyle_1 OrgRenderingStyle_1 OrgRenderingStyle_1</title><desc>Created with Sketch.</desc><g id="OrgRenderingStyle_1-OrgRenderingStyle_1-OrgRenderingStyle_1-" fill="none" fill-rule="evenodd" stroke="none" stroke-width="1"><g id="Group-2" transform="translate(1.000000, 31.000000)"><g id="Group" stroke="#FFEBB0" stroke-width="2" transform="translate(0.000000, 0.500000)"><rect id="Rectangle-3-Copy-7" width="35.92" height="13.283" x="48.596" y="1.179" fill="#FFF8E5" rx="2"/><rect id="Rectangle-3-Copy-10" width="35.92" height="13.283" x="48.596" y="29.197" fill="#FFF8E5" rx="2"/><rect id="Rectangle-3-Copy-11" width="35.92" height="13.283" x="48.596" y="57.215" fill="#FFF8E5" rx="2"/><rect id="Rectangle-3-Copy-12" width="35.92" height="13.283" x="1.196" y="57.215" fill="#FFF8E5" rx="2"/><rect id="Rectangle-3-Copy-13" width="35.92" height="13.283" x="95.996" y="57.215" fill="#FFF8E5" rx="2"/><path id="Path-11" d="M66.5562995,15.1332779 L66.5562995,28.7480069"/><path id="Path-11-Copy" d="M66.5562995,43.4797487 C66.5562995,51.5696909 66.5562995,55.9648918 66.5562995,56.6653513"/><polyline id="Path-12" points="18.016 56.371 18.016 49.642 115.604 49.642 115.604 56.545"/></g><rect id="Rectangle-5" width="21.983" height="2" x="56.058" y="7" fill="#444"/><rect id="Rectangle-5-Copy" width="21.983" height="2" x="56.058" y="35.5" fill="#444"/><rect id="Rectangle-5-Copy-2" width="21.983" height="2" x="56.058" y="63.207" fill="#444"/><rect id="Rectangle-5-Copy-4" width="21.983" height="2" x="8.961" y="63.207" fill="#444"/><rect id="Rectangle-5-Copy-3" width="21.983" height="2" x="103.185" y="63.207" fill="#444"/></g></g></svg>