<svg xmlns="http://www.w3.org/2000/svg" xmlns:xlink="http://www.w3.org/1999/xlink" width="135" height="135" version="1.1" viewBox="0 0 135 135"><title>OrgRenderingStyle_2</title><desc>Created with Sketch.</desc><g id="OrgRenderingStyle_2" fill="none" fill-rule="evenodd" stroke="none" stroke-width="1"><g id="Group" transform="translate(1.000000, 27.709016)"><g id="Group-Copy" stroke="#88FEE1" stroke-width="2" transform="translate(0.515273, 0.545082)"><rect id="Rectangle-3-Copy-7" width="35.609" height="14.661" x="48.206" y="1.195" fill="#B6FFF2" rx="2"/><rect id="Rectangle-3-Copy-10" width="35.609" height="14.661" x="48.206" y="31.739" fill="#B6FFF2" rx="2"/><rect id="Rectangle-3-Copy-11" width="35.609" height="14.661" x="48.206" y="62.284" fill="#B6FFF2" rx="2"/><rect id="Rectangle-3-Copy-12" width="35.609" height="14.661" x="1.195" y="62.284" fill="#B6FFF2" rx="2"/><rect id="Rectangle-3-Copy-13" width="35.609" height="14.661" x="95.218" y="62.284" fill="#B6FFF2" rx="2"/><path id="Path-11" d="M66.0107561,16.4977537 L66.0107561,31.3400403"/><path id="Path-11-Copy" d="M66.0107561,47.400054 C66.0107561,56.2194172 66.0107561,61.0109066 66.0107561,61.7745223"/><polyline id="Path-12" points="17.868 61.454 17.868 54.118 114.657 54.118 114.657 61.644"/></g><rect id="Rectangle-5-Copy-5" width="21.803" height="2.18" x="56.114" y="5.451" fill="#444"/><rect id="Rectangle-5-Copy-6" width="21.803" height="2.18" x="56.114" y="36.52" fill="#444"/><rect id="Rectangle-5-Copy-7" width="21.803" height="2.18" x="56.114" y="66.726" fill="#444"/><rect id="Rectangle-5-Copy-8" width="21.803" height="2.18" x="9.403" y="66.726" fill="#444"/><rect id="Rectangle-5-Copy-9" width="21.803" height="2.18" x="102.854" y="66.726" fill="#444"/><rect id="Rectangle-5-Copy-14" width="21.803" height="2.18" x="56.114" y="9.811" fill="#B7B7B7"/><rect id="Rectangle-5-Copy-13" width="21.803" height="2.18" x="56.114" y="40.881" fill="#B7B7B7"/><rect id="Rectangle-5-Copy-12" width="21.803" height="2.18" x="56.114" y="71.087" fill="#B7B7B7"/><rect id="Rectangle-5-Copy-11" width="21.803" height="2.18" x="9.403" y="71.087" fill="#B7B7B7"/><rect id="Rectangle-5-Copy-10" width="21.803" height="2.18" x="102.854" y="71.087" fill="#B7B7B7"/></g></g></svg>