<svg xmlns="http://www.w3.org/2000/svg" xmlns:xlink="http://www.w3.org/1999/xlink" id="Layer_1" x="0" y="0" version="1.1" viewBox="0 0 32 32" xml:space="preserve" style="enable-background:new 0 0 32 32"><style type="text/css">.st0{fill:#6ca4d9}</style><g><g><rect width="10" height="2" x="5" y="15" class="st0"/></g><g><polygon points="18 22 13 16 18 10 20.8 14 19.1 15.1 17.9 13.3 15.6 16 17.9 18.7 19.1 16.9 20.8 18" class="st0"/></g><g><path d="M23,21.3c-2.3,0-4-2.3-4-5.3s1.8-5.3,4-5.3c2.3,0,4,2.3,4,5.3S25.2,21.3,23,21.3z M23,12.7 c-1.1,0-2,1.6-2,3.3s0.9,3.3,2,3.3s2-1.6,2-3.3S24.1,12.7,23,12.7z" class="st0"/></g></g></svg>